<svg width="247" height="237" viewBox="0 0 247 237" fill="none" xmlns="http://www.w3.org/2000/svg">
<g clip-path="url(#clip0_1_781)">
<path d="M467.275 265.63L467.647 254.306L456.317 254.328L456.144 259.594L401.475 259.7L391.723 249.484L391.802 247.06L389.41 247.064L374.574 231.524L353.91 231.564L353.99 229.129L348.325 229.14L348.139 234.802L353.804 234.791L353.884 232.357L374.216 232.317L388.792 247.582L388.773 248.164L344.867 248.249L334.298 237.181L334.653 226.358L323.324 226.38L323.152 231.622L292.236 231.682L307.973 216.069L337.953 215.999L337.977 215.208L300.44 215.298L300.274 215.298L283.74 231.7L254.535 231.756L227.075 203.011L227.429 192.24L216.099 192.262L215.728 203.585L226.491 203.565L254.35 232.546L267.641 232.52L283.402 249.157L325.411 249.076L325.331 251.511L330.996 251.5L331.182 245.838L325.517 245.849L325.437 248.284L291.15 248.35L276.137 232.502L323.126 232.411L322.952 237.7L333.668 237.68L344.509 249.036L388.747 248.95L388.711 250.051L391.147 250.046L401.115 260.488L410.52 260.469L431.397 282.169L456.777 282.12L456.803 281.327L438.348 281.363L418.231 260.455L456.117 260.381L455.944 265.647L467.273 265.625L467.275 265.63ZM225.895 202.372L216.964 202.389L217.257 193.463L226.188 193.446L225.895 202.372ZM290.032 248.349L283.76 248.371L268.747 232.523L275.029 232.511L290.032 248.349ZM284.846 231.699L300.58 216.09L306.864 216.076L291.128 231.687L284.846 231.699ZM333.121 236.489L324.191 236.506L324.484 227.58L333.415 227.563L333.121 236.489ZM437.235 281.37L431.753 281.381L411.636 260.472L417.118 260.462L437.235 281.37Z" fill="url(#paint0_linear_1_781)"/>
<path d="M219.655 199.66L223.395 199.653L223.517 195.915L219.778 195.922L219.655 199.66Z" fill="url(#paint1_linear_1_781)"/>
<path d="M54.3577 105.063L54.3837 104.27L19.5715 104.338L19.7443 99.0722L8.41472 99.0942L8.0429 110.418L19.3726 110.396L19.5455 105.13L54.3577 105.063ZM18.2142 109.201L9.28327 109.218L9.57638 100.292L18.5073 100.275L18.2142 109.201Z" fill="url(#paint2_linear_1_781)"/>
<path d="M11.9627 106.62L15.7024 106.613L15.8251 102.875L12.0854 102.883L11.9627 106.62Z" fill="url(#paint3_linear_1_781)"/>
<path d="M274.738 179.088L286.068 179.066L286.44 167.743L275.11 167.765L274.937 173.03L203.534 173.168L181.424 150.022L244.1 149.901L244.126 149.108L176.67 149.239L176.843 143.973L165.513 143.995L165.34 149.261L136.65 149.316L109.749 121.141L92.2807 121.175L92.3606 118.74L86.6958 118.751L86.6155 121.196L63.0347 121.241L63.2076 115.976L51.878 115.998L51.5061 127.321L62.8358 127.299L63.0087 122.034L86.5895 121.988L86.5098 124.416L92.1746 124.405L92.2545 121.97L109.391 121.937L136.292 150.113L165.314 150.057L165.141 155.322L175.834 155.302L193.565 173.865L193.678 173.982L274.909 173.824L274.737 179.09L274.738 179.088ZM176.485 154.814L176.642 150.03L180.312 150.023L202.421 173.169L194.036 173.185L176.487 154.813L176.485 154.814ZM276.268 168.959L285.199 168.942L284.906 177.868L275.975 177.886L276.268 168.959Z" fill="url(#paint4_linear_1_781)"/>
<path d="M211.297 138.254L211.669 126.93L200.339 126.952L200.166 132.218L145.497 132.323L121.234 106.911L121.298 104.957L179.132 104.845L207.887 76.562L262.556 76.4563L262.383 81.7219L273.713 81.6999L274.085 70.3764L262.755 70.3983L262.582 75.6639L195.445 75.7938L166.69 104.077L121.323 104.146L121.402 101.728L115.738 101.739L115.658 104.15L61.2429 104.256L61.2169 105.048L115.632 104.946L115.552 107.401L120.58 107.391L145.135 133.11L200.137 133.003L199.964 138.269L211.294 138.247L211.297 138.254ZM195.749 76.5872L206.774 76.5659L178.824 104.055L167.8 104.076L195.749 76.5872Z" fill="url(#paint5_linear_1_781)"/>
<path d="M245.955 150.994L248.947 150.988L249.045 147.997L246.053 148.003L245.955 150.994Z" fill="url(#paint6_linear_1_781)"/>
<path d="M245.983 99.2594L256.747 99.2386L257.119 87.915L245.789 87.9369L245.435 98.7085L238.348 105.581L200.801 105.604L188.061 118.133L154.644 118.218L154.693 116.745L150.952 116.753L150.83 120.491L154.57 120.484L154.618 119.011L194.009 118.911L194.175 118.911L206.911 106.385L238.65 106.372L245.983 99.2628L245.983 99.2594ZM246.949 89.1333L255.88 89.116L255.587 98.0422L246.656 98.0594L246.949 89.1333ZM193.87 118.117L189.175 118.13L201.107 106.393L205.8 106.383L193.87 118.117Z" fill="url(#paint7_linear_1_781)"/>
<path d="M64.1205 88.07L120.858 87.9686L149.613 59.6855L168.279 59.6476L168.122 64.4358L146.55 85.6537L143.402 85.6598L143.279 89.3982L147.02 89.3909L147.125 86.1808L168.747 64.9154L179.439 64.8947L179.612 59.6257L206.885 59.5713L206.911 58.7789L179.638 58.8334L179.795 54.052L198.553 35.6093L240.231 35.527L240.058 40.7926L251.388 40.7706L251.76 29.4471L240.43 29.469L240.257 34.7346L198.247 34.8176L179.176 53.5707L168.483 53.5914L168.31 58.857L139.287 58.9148L110.532 87.198L64.1515 87.2793L64.3244 82.0136L52.9948 82.0356L52.6229 93.3591L63.9526 93.3372L64.1255 88.0716L64.1205 88.07ZM241.587 30.6654L250.518 30.6481L250.224 39.5743L241.294 39.5915L241.587 30.6654ZM139.588 59.7049L148.502 59.6876L120.552 87.1769L111.638 87.1941L139.588 59.7049ZM62.7876 92.1391L53.8567 92.1564L54.1498 83.2303L63.0806 83.213L62.7876 92.1391Z" fill="url(#paint8_linear_1_781)"/>
<path d="M55.9764 106.578L59.7161 106.571L59.8388 102.833L56.0991 102.841L55.9764 106.578Z" fill="url(#paint9_linear_1_781)"/>
<path d="M258.6 19.9886L290.341 19.8798L302.255 32.3562L340.163 32.2998L348.826 41.3643L333.441 41.3941L333.49 39.9211L329.749 39.9283L329.626 43.6667L333.367 43.6595L333.415 42.1865L349.58 42.1552L371.192 64.7675L371.035 69.5489L368.521 69.5538L333.776 69.621L306.875 41.4455L268.797 41.5192L268.877 39.0845L263.212 39.0954L263.026 44.7572L268.691 44.7462L268.771 42.3115L289.106 42.2722L316.007 70.4477L333.418 70.414L368.491 70.3461L371.005 70.3413L370.832 75.6069L382.162 75.5849L382.534 64.2614L371.838 64.2821L340.514 31.5102L309.997 31.5574L298.078 19.0759L258.946 19.2007L252.309 12.3551L252.663 1.5835L241.333 1.60543L240.961 12.929L251.725 12.9082L258.592 19.9903L258.6 19.9886ZM316.367 69.653L290.219 42.2684L306.519 42.2368L332.667 69.6214L316.367 69.653ZM297.729 19.8638L308.891 31.5544L302.613 31.5632L291.462 19.8844L297.729 19.8638ZM251.139 11.709L242.209 11.7262L242.502 2.80015L251.433 2.78285L251.139 11.709Z" fill="url(#paint10_linear_1_781)"/>
<path d="M221.511 134.414L225.25 134.407L225.373 130.669L221.633 130.677L221.511 134.414Z" fill="url(#paint11_linear_1_781)"/>
<path d="M368.034 160.884L356.98 171.658L354.554 171.662L354.518 172.77L303.218 172.965L303.39 167.71L292.06 167.732L291.689 179.055L303.018 179.034L303.192 173.758L323.811 173.679L300.364 196.741L253.873 196.831L254.046 191.565L242.716 191.587L242.344 202.911L253.674 202.889L253.847 197.623L308.848 197.517L333.118 173.644L354.492 173.562L354.456 174.656L357.447 174.65L357.527 172.215L368.576 161.443L368.036 160.886L368.034 160.884ZM308.542 196.725L301.475 196.739L324.926 173.673L332.007 173.646L308.544 196.723L308.542 196.725Z" fill="url(#paint12_linear_1_781)"/>
<path d="M419.983 126.072L420.105 122.333L416.927 122.339L404.506 109.329L346.672 109.441L346.752 107.006L341.684 107.016L328.339 93.039L313.272 93.0682L296.593 75.5998L281.947 75.6281L281.983 74.5276L278.991 74.5334L278.893 77.5234L281.885 77.5176L281.921 76.4171L296.235 76.3894L312.159 93.0686L273.336 93.1437L273.508 87.8781L262.179 87.9001L261.807 99.2236L267.082 99.2134L266.496 116.862L292.901 144.243L292.745 149.011L287.703 149.021L259.475 119.749L235.979 119.784L228.646 126.894L217.882 126.915L217.511 138.238L228.84 138.216L229.014 132.931L246.549 132.888L246.513 133.985L249.505 133.979L249.603 130.989L246.611 130.995L246.575 132.096L229.04 132.138L229.194 127.445L236.282 120.573L249.617 120.554L277.088 149.041L250.9 149.094L250.874 149.886L292.717 149.802L292.544 155.071L303.874 155.049L304.245 143.725L293.539 143.746L267.298 116.534L267.872 99.2119L273.137 99.2017L273.31 93.9361L327.979 93.8303L341.067 107.539L340.898 112.679L346.563 112.668L346.643 110.233L404.145 110.122L416.343 122.899L416.239 126.079L419.979 126.072L419.983 126.072ZM227.682 137.025L218.751 137.042L219.044 128.116L227.975 128.099L227.682 137.025ZM250.736 120.557L259.122 120.544L286.588 149.026L278.206 149.043L250.735 120.555L250.736 120.557Z" fill="url(#paint13_linear_1_781)"/>
<path d="M243.975 36.9913L247.714 36.9841L247.837 33.2464L244.097 33.2536L243.975 36.9913Z" fill="url(#paint14_linear_1_781)"/>
<path d="M208.738 60.6664L211.731 60.6606L211.829 57.6699L208.837 57.6757L208.738 60.6664Z" fill="url(#paint15_linear_1_781)"/>
<path d="M250.553 64.7521L250.925 53.4285L239.595 53.4505L239.422 58.7161L213.687 58.7659L213.661 59.5549L239.396 59.5085L239.223 64.774L250.553 64.7521Z" fill="url(#paint16_linear_1_781)"/>
</g>
<defs>
<linearGradient id="paint0_linear_1_781" x1="-63.5783" y1="55.2934" x2="869.995" y2="499.397" gradientUnits="userSpaceOnUse">
<stop stop-color="#F6CE67"/>
<stop offset="0.04" stop-color="#DCAF51"/>
<stop offset="0.07" stop-color="#C79640"/>
<stop offset="0.1" stop-color="#B98534"/>
<stop offset="0.14" stop-color="#B07B2D"/>
<stop offset="0.18" stop-color="#AE782B"/>
<stop offset="0.3" stop-color="#CD9E4A"/>
<stop offset="0.42" stop-color="#E8BE64"/>
<stop offset="0.49" stop-color="#F3CB6E"/>
<stop offset="0.54" stop-color="#EDC468"/>
<stop offset="0.62" stop-color="#DDB058"/>
<stop offset="0.72" stop-color="#C3913F"/>
<stop offset="0.78" stop-color="#AE782B"/>
<stop offset="0.82" stop-color="#B27D2E"/>
<stop offset="0.87" stop-color="#BE8C38"/>
<stop offset="0.92" stop-color="#D3A44A"/>
<stop offset="0.98" stop-color="#F0C661"/>
<stop offset="1" stop-color="#FFD86E"/>
</linearGradient>
<linearGradient id="paint1_linear_1_781" x1="-69.4296" y1="67.5955" x2="864.143" y2="511.698" gradientUnits="userSpaceOnUse">
<stop stop-color="#F6CE67"/>
<stop offset="0.04" stop-color="#DCAF51"/>
<stop offset="0.07" stop-color="#C79640"/>
<stop offset="0.1" stop-color="#B98534"/>
<stop offset="0.14" stop-color="#B07B2D"/>
<stop offset="0.18" stop-color="#AE782B"/>
<stop offset="0.3" stop-color="#CD9E4A"/>
<stop offset="0.42" stop-color="#E8BE64"/>
<stop offset="0.49" stop-color="#F3CB6E"/>
<stop offset="0.54" stop-color="#EDC468"/>
<stop offset="0.62" stop-color="#DDB058"/>
<stop offset="0.72" stop-color="#C3913F"/>
<stop offset="0.78" stop-color="#AE782B"/>
<stop offset="0.82" stop-color="#B27D2E"/>
<stop offset="0.87" stop-color="#BE8C38"/>
<stop offset="0.92" stop-color="#D3A44A"/>
<stop offset="0.98" stop-color="#F0C661"/>
<stop offset="1" stop-color="#FFD86E"/>
</linearGradient>
<linearGradient id="paint2_linear_1_781" x1="-67.3612" y1="63.2457" x2="866.212" y2="507.35" gradientUnits="userSpaceOnUse">
<stop stop-color="#F6CE67"/>
<stop offset="0.04" stop-color="#DCAF51"/>
<stop offset="0.07" stop-color="#C79640"/>
<stop offset="0.1" stop-color="#B98534"/>
<stop offset="0.14" stop-color="#B07B2D"/>
<stop offset="0.18" stop-color="#AE782B"/>
<stop offset="0.3" stop-color="#CD9E4A"/>
<stop offset="0.42" stop-color="#E8BE64"/>
<stop offset="0.49" stop-color="#F3CB6E"/>
<stop offset="0.54" stop-color="#EDC468"/>
<stop offset="0.62" stop-color="#DDB058"/>
<stop offset="0.72" stop-color="#C3913F"/>
<stop offset="0.78" stop-color="#AE782B"/>
<stop offset="0.82" stop-color="#B27D2E"/>
<stop offset="0.87" stop-color="#BE8C38"/>
<stop offset="0.92" stop-color="#D3A44A"/>
<stop offset="0.98" stop-color="#F0C661"/>
<stop offset="1" stop-color="#FFD86E"/>
</linearGradient>
<linearGradient id="paint3_linear_1_781" x1="-69.3801" y1="67.4921" x2="864.186" y2="511.588" gradientUnits="userSpaceOnUse">
<stop stop-color="#F6CE67"/>
<stop offset="0.04" stop-color="#DCAF51"/>
<stop offset="0.07" stop-color="#C79640"/>
<stop offset="0.1" stop-color="#B98534"/>
<stop offset="0.14" stop-color="#B07B2D"/>
<stop offset="0.18" stop-color="#AE782B"/>
<stop offset="0.3" stop-color="#CD9E4A"/>
<stop offset="0.42" stop-color="#E8BE64"/>
<stop offset="0.49" stop-color="#F3CB6E"/>
<stop offset="0.54" stop-color="#EDC468"/>
<stop offset="0.62" stop-color="#DDB058"/>
<stop offset="0.72" stop-color="#C3913F"/>
<stop offset="0.78" stop-color="#AE782B"/>
<stop offset="0.82" stop-color="#B27D2E"/>
<stop offset="0.87" stop-color="#BE8C38"/>
<stop offset="0.92" stop-color="#D3A44A"/>
<stop offset="0.98" stop-color="#F0C661"/>
<stop offset="1" stop-color="#FFD86E"/>
</linearGradient>
<linearGradient id="paint4_linear_1_781" x1="-58.9496" y1="45.5664" x2="874.622" y2="489.669" gradientUnits="userSpaceOnUse">
<stop stop-color="#F6CE67"/>
<stop offset="0.04" stop-color="#DCAF51"/>
<stop offset="0.07" stop-color="#C79640"/>
<stop offset="0.1" stop-color="#B98534"/>
<stop offset="0.14" stop-color="#B07B2D"/>
<stop offset="0.18" stop-color="#AE782B"/>
<stop offset="0.3" stop-color="#CD9E4A"/>
<stop offset="0.42" stop-color="#E8BE64"/>
<stop offset="0.49" stop-color="#F3CB6E"/>
<stop offset="0.54" stop-color="#EDC468"/>
<stop offset="0.62" stop-color="#DDB058"/>
<stop offset="0.72" stop-color="#C3913F"/>
<stop offset="0.78" stop-color="#AE782B"/>
<stop offset="0.82" stop-color="#B27D2E"/>
<stop offset="0.87" stop-color="#BE8C38"/>
<stop offset="0.92" stop-color="#D3A44A"/>
<stop offset="0.98" stop-color="#F0C661"/>
<stop offset="1" stop-color="#FFD86E"/>
</linearGradient>
<linearGradient id="paint5_linear_1_781" x1="-35.72" y1="-3.26607" x2="897.852" y2="440.836" gradientUnits="userSpaceOnUse">
<stop stop-color="#F6CE67"/>
<stop offset="0.04" stop-color="#DCAF51"/>
<stop offset="0.07" stop-color="#C79640"/>
<stop offset="0.1" stop-color="#B98534"/>
<stop offset="0.14" stop-color="#B07B2D"/>
<stop offset="0.18" stop-color="#AE782B"/>
<stop offset="0.3" stop-color="#CD9E4A"/>
<stop offset="0.42" stop-color="#E8BE64"/>
<stop offset="0.49" stop-color="#F3CB6E"/>
<stop offset="0.54" stop-color="#EDC468"/>
<stop offset="0.62" stop-color="#DDB058"/>
<stop offset="0.72" stop-color="#C3913F"/>
<stop offset="0.78" stop-color="#AE782B"/>
<stop offset="0.82" stop-color="#B27D2E"/>
<stop offset="0.87" stop-color="#BE8C38"/>
<stop offset="0.92" stop-color="#D3A44A"/>
<stop offset="0.98" stop-color="#F0C661"/>
<stop offset="1" stop-color="#FFD86E"/>
</linearGradient>
<linearGradient id="paint6_linear_1_781" x1="-45.9402" y1="18.219" x2="887.63" y2="462.321" gradientUnits="userSpaceOnUse">
<stop stop-color="#F6CE67"/>
<stop offset="0.04" stop-color="#DCAF51"/>
<stop offset="0.07" stop-color="#C79640"/>
<stop offset="0.1" stop-color="#B98534"/>
<stop offset="0.14" stop-color="#B07B2D"/>
<stop offset="0.18" stop-color="#AE782B"/>
<stop offset="0.3" stop-color="#CD9E4A"/>
<stop offset="0.42" stop-color="#E8BE64"/>
<stop offset="0.49" stop-color="#F3CB6E"/>
<stop offset="0.54" stop-color="#EDC468"/>
<stop offset="0.62" stop-color="#DDB058"/>
<stop offset="0.72" stop-color="#C3913F"/>
<stop offset="0.78" stop-color="#AE782B"/>
<stop offset="0.82" stop-color="#B27D2E"/>
<stop offset="0.87" stop-color="#BE8C38"/>
<stop offset="0.92" stop-color="#D3A44A"/>
<stop offset="0.98" stop-color="#F0C661"/>
<stop offset="1" stop-color="#FFD86E"/>
</linearGradient>
<linearGradient id="paint7_linear_1_781" x1="-35.8109" y1="-3.07272" x2="897.76" y2="441.029" gradientUnits="userSpaceOnUse">
<stop stop-color="#F6CE67"/>
<stop offset="0.04" stop-color="#DCAF51"/>
<stop offset="0.07" stop-color="#C79640"/>
<stop offset="0.1" stop-color="#B98534"/>
<stop offset="0.14" stop-color="#B07B2D"/>
<stop offset="0.18" stop-color="#AE782B"/>
<stop offset="0.3" stop-color="#CD9E4A"/>
<stop offset="0.42" stop-color="#E8BE64"/>
<stop offset="0.49" stop-color="#F3CB6E"/>
<stop offset="0.54" stop-color="#EDC468"/>
<stop offset="0.62" stop-color="#DDB058"/>
<stop offset="0.72" stop-color="#C3913F"/>
<stop offset="0.78" stop-color="#AE782B"/>
<stop offset="0.82" stop-color="#B27D2E"/>
<stop offset="0.87" stop-color="#BE8C38"/>
<stop offset="0.92" stop-color="#D3A44A"/>
<stop offset="0.98" stop-color="#F0C661"/>
<stop offset="1" stop-color="#FFD86E"/>
</linearGradient>
<linearGradient id="paint8_linear_1_781" x1="-28.1126" y1="-19.2576" x2="905.458" y2="424.844" gradientUnits="userSpaceOnUse">
<stop stop-color="#F6CE67"/>
<stop offset="0.04" stop-color="#DCAF51"/>
<stop offset="0.07" stop-color="#C79640"/>
<stop offset="0.1" stop-color="#B98534"/>
<stop offset="0.14" stop-color="#B07B2D"/>
<stop offset="0.18" stop-color="#AE782B"/>
<stop offset="0.3" stop-color="#CD9E4A"/>
<stop offset="0.42" stop-color="#E8BE64"/>
<stop offset="0.49" stop-color="#F3CB6E"/>
<stop offset="0.54" stop-color="#EDC468"/>
<stop offset="0.62" stop-color="#DDB058"/>
<stop offset="0.72" stop-color="#C3913F"/>
<stop offset="0.78" stop-color="#AE782B"/>
<stop offset="0.82" stop-color="#B27D2E"/>
<stop offset="0.87" stop-color="#BE8C38"/>
<stop offset="0.92" stop-color="#D3A44A"/>
<stop offset="0.98" stop-color="#F0C661"/>
<stop offset="1" stop-color="#FFD86E"/>
</linearGradient>
<linearGradient id="paint9_linear_1_781" x1="-61.5915" y1="51.1995" x2="871.976" y2="495.297" gradientUnits="userSpaceOnUse">
<stop stop-color="#F6CE67"/>
<stop offset="0.04" stop-color="#DCAF51"/>
<stop offset="0.07" stop-color="#C79640"/>
<stop offset="0.1" stop-color="#B98534"/>
<stop offset="0.14" stop-color="#B07B2D"/>
<stop offset="0.18" stop-color="#AE782B"/>
<stop offset="0.3" stop-color="#CD9E4A"/>
<stop offset="0.42" stop-color="#E8BE64"/>
<stop offset="0.49" stop-color="#F3CB6E"/>
<stop offset="0.54" stop-color="#EDC468"/>
<stop offset="0.62" stop-color="#DDB058"/>
<stop offset="0.72" stop-color="#C3913F"/>
<stop offset="0.78" stop-color="#AE782B"/>
<stop offset="0.82" stop-color="#B27D2E"/>
<stop offset="0.87" stop-color="#BE8C38"/>
<stop offset="0.92" stop-color="#D3A44A"/>
<stop offset="0.98" stop-color="#F0C661"/>
<stop offset="1" stop-color="#FFD86E"/>
</linearGradient>
<linearGradient id="paint10_linear_1_781" x1="6.87302" y1="-92.8053" x2="940.446" y2="351.299" gradientUnits="userSpaceOnUse">
<stop stop-color="#F6CE67"/>
<stop offset="0.04" stop-color="#DCAF51"/>
<stop offset="0.07" stop-color="#C79640"/>
<stop offset="0.1" stop-color="#B98534"/>
<stop offset="0.14" stop-color="#B07B2D"/>
<stop offset="0.18" stop-color="#AE782B"/>
<stop offset="0.3" stop-color="#CD9E4A"/>
<stop offset="0.42" stop-color="#E8BE64"/>
<stop offset="0.49" stop-color="#F3CB6E"/>
<stop offset="0.54" stop-color="#EDC468"/>
<stop offset="0.62" stop-color="#DDB058"/>
<stop offset="0.72" stop-color="#C3913F"/>
<stop offset="0.78" stop-color="#AE782B"/>
<stop offset="0.82" stop-color="#B27D2E"/>
<stop offset="0.87" stop-color="#BE8C38"/>
<stop offset="0.92" stop-color="#D3A44A"/>
<stop offset="0.98" stop-color="#F0C661"/>
<stop offset="1" stop-color="#FFD86E"/>
</linearGradient>
<linearGradient id="paint11_linear_1_781" x1="-43.5104" y1="13.1154" x2="890.055" y2="457.212" gradientUnits="userSpaceOnUse">
<stop stop-color="#F6CE67"/>
<stop offset="0.04" stop-color="#DCAF51"/>
<stop offset="0.07" stop-color="#C79640"/>
<stop offset="0.1" stop-color="#B98534"/>
<stop offset="0.14" stop-color="#B07B2D"/>
<stop offset="0.18" stop-color="#AE782B"/>
<stop offset="0.3" stop-color="#CD9E4A"/>
<stop offset="0.42" stop-color="#E8BE64"/>
<stop offset="0.49" stop-color="#F3CB6E"/>
<stop offset="0.54" stop-color="#EDC468"/>
<stop offset="0.62" stop-color="#DDB058"/>
<stop offset="0.72" stop-color="#C3913F"/>
<stop offset="0.78" stop-color="#AE782B"/>
<stop offset="0.82" stop-color="#B27D2E"/>
<stop offset="0.87" stop-color="#BE8C38"/>
<stop offset="0.92" stop-color="#D3A44A"/>
<stop offset="0.98" stop-color="#F0C661"/>
<stop offset="1" stop-color="#FFD86E"/>
</linearGradient>
<linearGradient id="paint12_linear_1_781" x1="-48.5274" y1="23.6555" x2="885.044" y2="467.758" gradientUnits="userSpaceOnUse">
<stop stop-color="#F6CE67"/>
<stop offset="0.04" stop-color="#DCAF51"/>
<stop offset="0.07" stop-color="#C79640"/>
<stop offset="0.1" stop-color="#B98534"/>
<stop offset="0.14" stop-color="#B07B2D"/>
<stop offset="0.18" stop-color="#AE782B"/>
<stop offset="0.3" stop-color="#CD9E4A"/>
<stop offset="0.42" stop-color="#E8BE64"/>
<stop offset="0.49" stop-color="#F3CB6E"/>
<stop offset="0.54" stop-color="#EDC468"/>
<stop offset="0.62" stop-color="#DDB058"/>
<stop offset="0.72" stop-color="#C3913F"/>
<stop offset="0.78" stop-color="#AE782B"/>
<stop offset="0.82" stop-color="#B27D2E"/>
<stop offset="0.87" stop-color="#BE8C38"/>
<stop offset="0.92" stop-color="#D3A44A"/>
<stop offset="0.98" stop-color="#F0C661"/>
<stop offset="1" stop-color="#FFD86E"/>
</linearGradient>
<linearGradient id="paint13_linear_1_781" x1="-24.7137" y1="-26.4053" x2="908.859" y2="417.699" gradientUnits="userSpaceOnUse">
<stop stop-color="#F6CE67"/>
<stop offset="0.04" stop-color="#DCAF51"/>
<stop offset="0.07" stop-color="#C79640"/>
<stop offset="0.1" stop-color="#B98534"/>
<stop offset="0.14" stop-color="#B07B2D"/>
<stop offset="0.18" stop-color="#AE782B"/>
<stop offset="0.3" stop-color="#CD9E4A"/>
<stop offset="0.42" stop-color="#E8BE64"/>
<stop offset="0.49" stop-color="#F3CB6E"/>
<stop offset="0.54" stop-color="#EDC468"/>
<stop offset="0.62" stop-color="#DDB058"/>
<stop offset="0.72" stop-color="#C3913F"/>
<stop offset="0.78" stop-color="#AE782B"/>
<stop offset="0.82" stop-color="#B27D2E"/>
<stop offset="0.87" stop-color="#BE8C38"/>
<stop offset="0.92" stop-color="#D3A44A"/>
<stop offset="0.98" stop-color="#F0C661"/>
<stop offset="1" stop-color="#FFD86E"/>
</linearGradient>
<linearGradient id="paint14_linear_1_781" x1="-1.36337" y1="-75.4988" x2="932.213" y2="368.61" gradientUnits="userSpaceOnUse">
<stop stop-color="#F6CE67"/>
<stop offset="0.04" stop-color="#DCAF51"/>
<stop offset="0.07" stop-color="#C79640"/>
<stop offset="0.1" stop-color="#B98534"/>
<stop offset="0.14" stop-color="#B07B2D"/>
<stop offset="0.18" stop-color="#AE782B"/>
<stop offset="0.3" stop-color="#CD9E4A"/>
<stop offset="0.42" stop-color="#E8BE64"/>
<stop offset="0.49" stop-color="#F3CB6E"/>
<stop offset="0.54" stop-color="#EDC468"/>
<stop offset="0.62" stop-color="#DDB058"/>
<stop offset="0.72" stop-color="#C3913F"/>
<stop offset="0.78" stop-color="#AE782B"/>
<stop offset="0.82" stop-color="#B27D2E"/>
<stop offset="0.87" stop-color="#BE8C38"/>
<stop offset="0.92" stop-color="#D3A44A"/>
<stop offset="0.98" stop-color="#F0C661"/>
<stop offset="1" stop-color="#FFD86E"/>
</linearGradient>
<linearGradient id="paint15_linear_1_781" x1="-17.0427" y1="-42.5317" x2="916.529" y2="401.572" gradientUnits="userSpaceOnUse">
<stop stop-color="#F6CE67"/>
<stop offset="0.04" stop-color="#DCAF51"/>
<stop offset="0.07" stop-color="#C79640"/>
<stop offset="0.1" stop-color="#B98534"/>
<stop offset="0.14" stop-color="#B07B2D"/>
<stop offset="0.18" stop-color="#AE782B"/>
<stop offset="0.3" stop-color="#CD9E4A"/>
<stop offset="0.42" stop-color="#E8BE64"/>
<stop offset="0.49" stop-color="#F3CB6E"/>
<stop offset="0.54" stop-color="#EDC468"/>
<stop offset="0.62" stop-color="#DDB058"/>
<stop offset="0.72" stop-color="#C3913F"/>
<stop offset="0.78" stop-color="#AE782B"/>
<stop offset="0.82" stop-color="#B27D2E"/>
<stop offset="0.87" stop-color="#BE8C38"/>
<stop offset="0.92" stop-color="#D3A44A"/>
<stop offset="0.98" stop-color="#F0C661"/>
<stop offset="1" stop-color="#FFD86E"/>
</linearGradient>
<linearGradient id="paint16_linear_1_781" x1="-12.1317" y1="-52.8558" x2="921.441" y2="391.248" gradientUnits="userSpaceOnUse">
<stop stop-color="#F6CE67"/>
<stop offset="0.04" stop-color="#DCAF51"/>
<stop offset="0.07" stop-color="#C79640"/>
<stop offset="0.1" stop-color="#B98534"/>
<stop offset="0.14" stop-color="#B07B2D"/>
<stop offset="0.18" stop-color="#AE782B"/>
<stop offset="0.3" stop-color="#CD9E4A"/>
<stop offset="0.42" stop-color="#E8BE64"/>
<stop offset="0.49" stop-color="#F3CB6E"/>
<stop offset="0.54" stop-color="#EDC468"/>
<stop offset="0.62" stop-color="#DDB058"/>
<stop offset="0.72" stop-color="#C3913F"/>
<stop offset="0.78" stop-color="#AE782B"/>
<stop offset="0.82" stop-color="#B27D2E"/>
<stop offset="0.87" stop-color="#BE8C38"/>
<stop offset="0.92" stop-color="#D3A44A"/>
<stop offset="0.98" stop-color="#F0C661"/>
<stop offset="1" stop-color="#FFD86E"/>
</linearGradient>
<clipPath id="clip0_1_781">
<rect width="254.396" height="230.766" fill="white" transform="translate(260 231.297) rotate(178.739)"/>
</clipPath>
</defs>
</svg>
