<svg width="247" height="238" viewBox="0 0 247 238" fill="none" xmlns="http://www.w3.org/2000/svg">
<g clip-path="url(#clip0_1_698)">
<path d="M-221.321 264.076L-221.64 252.751L-210.311 252.825L-210.162 258.091L-155.494 258.449L-145.695 248.279L-145.763 245.854L-143.371 245.87L-128.463 230.398L-107.8 230.533L-107.869 228.098L-102.204 228.136L-102.044 233.798L-107.709 233.761L-107.777 231.326L-128.109 231.193L-142.755 246.39L-142.739 246.973L-98.834 247.26L-88.2139 236.24L-88.5194 225.416L-77.19 225.491L-77.042 230.733L-46.1267 230.936L-61.7921 215.25L-91.771 215.042L-91.7916 214.251L-54.2557 214.514L-54.0896 214.515L-37.6312 230.993L-8.42682 231.184L19.1652 202.566L18.8612 191.793L30.1906 191.867L30.5102 203.192L19.7466 203.122L-8.24532 231.974L-21.5364 231.887L-37.374 248.451L-79.3816 248.176L-79.3129 250.611L-84.9776 250.574L-85.1374 244.912L-79.4727 244.949L-79.404 247.384L-45.1176 247.608L-30.0318 231.83L-77.0197 231.522L-76.8705 236.812L-87.5867 236.742L-98.4798 248.048L-142.717 247.758L-142.686 248.859L-145.122 248.843L-155.138 259.239L-164.543 259.177L-185.519 280.78L-210.898 280.614L-210.921 279.822L-192.466 279.943L-172.254 259.127L-210.138 258.879L-209.99 264.145L-221.319 264.071L-221.321 264.076ZM20.3481 201.932L29.2789 201.991L29.0269 193.063L20.0962 193.005L20.3481 201.932ZM-43.9996 247.612L-37.7282 247.664L-22.6424 231.885L-28.9237 231.844L-43.9996 247.612ZM-38.7374 230.987L-54.3993 215.305L-60.6824 215.263L-45.0187 230.946L-38.7374 230.987ZM-87.0342 235.554L-78.1035 235.612L-78.3554 226.685L-87.2861 226.626L-87.0342 235.554ZM-191.353 279.955L-185.872 279.991L-165.659 259.175L-171.141 259.139L-191.353 279.955Z" fill="url(#paint0_linear_1_698)"/>
<path d="M26.6009 199.249L22.8612 199.224L22.7558 195.486L26.4954 195.511L26.6009 199.249Z" fill="url(#paint1_linear_1_698)"/>
<path d="M192.333 105.415L192.31 104.623L227.122 104.85L226.973 99.5841L238.303 99.6583L238.622 110.983L227.293 110.909L227.144 105.643L192.333 105.415ZM228.457 109.72L237.387 109.778L237.135 100.851L228.205 100.793L228.457 109.72Z" fill="url(#paint2_linear_1_698)"/>
<path d="M234.72 107.168L230.98 107.143L230.875 103.405L234.614 103.43L234.72 107.168Z" fill="url(#paint3_linear_1_698)"/>
<path d="M-28.387 178.423L-39.7164 178.349L-40.036 167.024L-28.7066 167.098L-28.558 172.365L42.8438 172.832L65.0598 149.788L2.38553 149.378L2.36317 148.585L69.8179 149.027L69.6693 143.76L80.9987 143.835L81.1473 149.101L109.837 149.289L136.867 121.238L154.336 121.352L154.267 118.917L159.932 118.954L160.001 121.399L183.581 121.553L183.432 116.287L194.762 116.361L195.081 127.686L183.752 127.612L183.603 122.346L160.023 122.192L160.092 124.62L154.427 124.583L154.358 122.148L137.222 122.036L110.191 150.087L81.1698 149.897L81.3184 155.163L70.6259 155.093L52.81 173.575L52.6964 173.691L-28.5339 173.159L-28.3853 178.425L-28.387 178.423ZM69.977 154.603L69.8419 149.818L66.1728 149.793L43.9567 172.838L52.342 172.893L69.9752 154.601L69.977 154.603ZM-29.8705 168.288L-38.8012 168.229L-38.5493 177.157L-29.6185 177.215L-29.8705 168.288Z" fill="url(#paint4_linear_1_698)"/>
<path d="M35.242 137.882L34.9224 126.557L46.2518 126.631L46.4005 131.897L101.069 132.255L125.449 106.955L125.393 105.001L67.5606 104.622L38.9366 76.2065L-15.7319 75.8487L-15.5833 81.115L-26.9127 81.0409L-27.2323 69.7157L-15.9029 69.7898L-15.7543 75.0562L51.382 75.4957L80.006 103.911L125.372 104.189L125.304 101.771L130.969 101.808L131.037 104.22L185.451 104.576L185.474 105.369L131.059 105.016L131.129 107.471L126.101 107.438L101.427 133.043L46.4261 132.683L46.5747 137.949L35.2452 137.875L35.242 137.882ZM51.0741 76.2877L40.0496 76.2155L67.8719 103.833L78.8964 103.906L51.0741 76.2877Z" fill="url(#paint5_linear_1_698)"/>
<path d="M0.525576 150.462L-2.46661 150.442L-2.55102 147.451L0.44117 147.471L0.525576 150.462Z" fill="url(#paint6_linear_1_698)"/>
<path d="M0.736051 98.728L-10.0276 98.6575L-10.3471 87.3323L0.982265 87.4065L1.28627 98.1796L8.34221 105.084L45.8882 105.281L58.57 117.869L91.9862 118.108L91.9447 116.635L95.685 116.659L95.7905 120.398L92.0502 120.374L92.0086 118.9L52.6192 118.619L52.4532 118.618L39.7749 106.033L8.03593 105.875L0.736131 98.7314L0.736051 98.728ZM-0.183262 88.5976L-9.11397 88.5391L-8.86206 97.4665L0.0686862 97.5249L-0.183262 88.5976ZM52.7611 117.826L57.457 117.86L45.5784 106.068L40.8861 106.037L52.7611 117.826Z" fill="url(#paint7_linear_1_698)"/>
<path d="M182.648 88.3773L125.912 88.0144L97.2877 59.5989L78.6216 59.475L78.7567 64.2638L100.231 85.581L103.379 85.6016L103.484 89.3405L99.7438 89.316L99.6532 86.1054L78.13 64.7405L67.4375 64.6706L67.2888 59.4008L40.0171 59.2206L39.9948 58.4281L67.2664 58.6084L67.1314 53.8263L48.4591 35.2973L6.78178 35.0228L6.93037 40.2891L-4.39904 40.215L-4.71863 28.8898L6.61077 28.964L6.75939 34.2303L48.7687 34.507L67.753 53.3479L78.4455 53.4179L78.5941 58.6842L107.617 58.8759L136.241 87.2913L182.621 87.5865L182.472 82.3201L193.802 82.3943L194.121 93.7195L182.792 93.6453L182.643 88.379L182.648 88.3773ZM5.44864 30.1551L-3.48205 30.0966L-3.23016 39.024L5.7006 39.0824L5.44864 30.1551ZM107.313 59.6645L98.3989 59.6062L126.221 87.2241L135.135 87.2824L107.313 59.6645ZM183.962 92.4526L192.893 92.511L192.641 83.5837L183.71 83.5252L183.962 92.4526Z" fill="url(#paint8_linear_1_698)"/>
<path d="M190.707 106.923L186.967 106.898L186.862 103.16L190.601 103.185L190.707 106.923Z" fill="url(#paint9_linear_1_698)"/>
<path d="M-11.5156 19.3998L-43.2555 19.1446L-55.2265 31.566L-93.1342 31.3348L-101.839 40.3593L-86.4542 40.4599L-86.4958 38.9868L-82.7555 39.0112L-82.65 42.7502L-86.3903 42.7257L-86.4319 41.2525L-102.596 41.1466L-124.312 63.6591L-124.177 68.4411L-121.663 68.4576L-86.9196 68.685L-59.8891 40.6339L-21.8115 40.8831L-21.8802 38.4481L-16.2155 38.4852L-16.0557 44.1477L-21.7204 44.1106L-21.7892 41.6756L-42.1238 41.5425L-69.1543 69.5936L-86.5652 69.4797L-121.638 69.2501L-124.151 69.2336L-124.003 74.5L-135.332 74.4258L-135.652 63.1006L-124.956 63.1706L-93.4817 30.5435L-62.9648 30.7315L-50.9888 18.305L-11.8579 18.6103L-5.18914 11.7954L-5.49315 1.02229L5.83626 1.09646L6.15586 12.4216L-4.60776 12.3512L-11.507 19.4016L-11.5156 19.3998ZM-69.5104 68.7973L-43.2368 41.5335L-59.5364 41.4268L-85.81 68.6906L-69.5104 68.7973ZM-50.643 19.0946L-61.8587 30.7336L-55.5809 30.7713L-44.3768 19.144L-50.643 19.0946ZM-4.01657 11.1547L4.91416 11.2131L4.66222 2.28578L-4.26848 2.2273L-4.01657 11.1547Z" fill="url(#paint10_linear_1_698)"/>
<path d="M25.046 133.995L21.3064 133.971L21.201 130.232L24.9406 130.257L25.046 133.995Z" fill="url(#paint11_linear_1_698)"/>
<path d="M-121.598 159.789L-110.593 170.614L-108.168 170.63L-108.136 171.737L-56.8378 172.169L-56.9861 166.913L-45.6567 166.987L-45.3371 178.312L-56.6665 178.238L-56.8154 172.962L-77.4341 172.788L-54.0934 195.958L-7.60351 196.262L-7.75211 190.996L3.5773 191.07L3.8969 202.395L-7.43253 202.321L-7.58113 197.054L-62.5817 196.694L-86.7414 172.71L-108.114 172.53L-108.083 173.623L-111.075 173.604L-111.143 171.169L-122.143 160.346L-121.599 159.791L-121.598 159.789ZM-62.272 195.904L-55.2047 195.95L-78.5488 172.777L-85.6301 172.717L-62.2738 195.902L-62.272 195.904Z" fill="url(#paint12_linear_1_698)"/>
<path d="M-173.385 124.738L-173.491 120.999L-170.313 121.02L-157.832 108.067L-99.999 108.445L-100.068 106.01L-94.9993 106.043L-81.5902 92.1279L-66.5238 92.2265L-49.7645 74.8352L-35.1182 74.9311L-35.1493 73.8305L-32.1577 73.85L-32.0733 76.8405L-35.0649 76.8209L-35.0959 75.7202L-49.4101 75.6265L-65.4109 92.2321L-26.588 92.4862L-26.7366 87.2199L-15.4072 87.2941L-15.0876 98.6192L-20.3627 98.5847L-19.8578 116.236L-46.389 143.495L-46.2544 148.263L-41.2131 148.296L-12.85 119.155L10.6454 119.299L17.9452 126.442L28.7088 126.513L29.0284 137.838L17.699 137.764L17.5498 132.477L0.015049 132.354L0.0460257 133.451L-2.94556 133.431L-3.02996 130.441L-0.0383506 130.461L-0.00729 131.561L17.5275 131.685L17.395 126.991L10.3391 120.086L-2.99586 120.005L-30.5985 148.366L-4.41107 148.539L-4.3887 149.332L-46.2304 149.054L-46.0817 154.324L-57.4111 154.25L-57.7307 142.925L-47.0247 142.995L-20.6581 115.904L-21.1521 98.5795L-26.417 98.545L-26.5656 93.2787L-81.2341 92.9209L-94.3849 106.569L-94.2398 111.71L-99.9045 111.673L-99.9732 109.238L-157.474 108.861L-169.731 121.582L-169.642 124.762L-173.382 124.738L-173.385 124.738ZM18.863 136.578L27.7937 136.636L27.5418 127.709L18.611 127.65L18.863 136.578ZM-4.11547 120.003L-12.5006 119.952L-40.0984 148.307L-31.7165 148.362L-4.11382 120.001L-4.11547 120.003Z" fill="url(#paint13_linear_1_698)"/>
<path d="M3.03145 36.4698L-0.708212 36.4453L-0.813702 32.7071L2.92596 32.7316L3.03145 36.4698Z" fill="url(#paint14_linear_1_698)"/>
<path d="M38.1583 60.3071L35.1661 60.2875L35.0817 57.2965L38.0739 57.3161L38.1583 60.3071Z" fill="url(#paint15_linear_1_698)"/>
<path d="M-3.67479 64.2L-3.99435 52.8748L7.33506 52.949L7.48366 58.2153L33.2188 58.3838L33.241 59.1729L7.50601 59.0079L7.65465 64.2741L-3.67479 64.2Z" fill="url(#paint16_linear_1_698)"/>
</g>
<defs>
<linearGradient id="paint0_linear_1_698" x1="310.497" y1="56.1897" x2="-625.114" y2="495.984" gradientUnits="userSpaceOnUse">
<stop stop-color="#F6CE67"/>
<stop offset="0.04" stop-color="#DCAF51"/>
<stop offset="0.07" stop-color="#C79640"/>
<stop offset="0.1" stop-color="#B98534"/>
<stop offset="0.14" stop-color="#B07B2D"/>
<stop offset="0.18" stop-color="#AE782B"/>
<stop offset="0.3" stop-color="#CD9E4A"/>
<stop offset="0.42" stop-color="#E8BE64"/>
<stop offset="0.49" stop-color="#F3CB6E"/>
<stop offset="0.54" stop-color="#EDC468"/>
<stop offset="0.62" stop-color="#DDB058"/>
<stop offset="0.72" stop-color="#C3913F"/>
<stop offset="0.78" stop-color="#AE782B"/>
<stop offset="0.82" stop-color="#B27D2E"/>
<stop offset="0.87" stop-color="#BE8C38"/>
<stop offset="0.92" stop-color="#D3A44A"/>
<stop offset="0.98" stop-color="#F0C661"/>
<stop offset="1" stop-color="#FFD86E"/>
</linearGradient>
<linearGradient id="paint1_linear_1_698" x1="316.291" y1="68.5188" x2="-619.319" y2="508.312" gradientUnits="userSpaceOnUse">
<stop stop-color="#F6CE67"/>
<stop offset="0.04" stop-color="#DCAF51"/>
<stop offset="0.07" stop-color="#C79640"/>
<stop offset="0.1" stop-color="#B98534"/>
<stop offset="0.14" stop-color="#B07B2D"/>
<stop offset="0.18" stop-color="#AE782B"/>
<stop offset="0.3" stop-color="#CD9E4A"/>
<stop offset="0.42" stop-color="#E8BE64"/>
<stop offset="0.49" stop-color="#F3CB6E"/>
<stop offset="0.54" stop-color="#EDC468"/>
<stop offset="0.62" stop-color="#DDB058"/>
<stop offset="0.72" stop-color="#C3913F"/>
<stop offset="0.78" stop-color="#AE782B"/>
<stop offset="0.82" stop-color="#B27D2E"/>
<stop offset="0.87" stop-color="#BE8C38"/>
<stop offset="0.92" stop-color="#D3A44A"/>
<stop offset="0.98" stop-color="#F0C661"/>
<stop offset="1" stop-color="#FFD86E"/>
</linearGradient>
<linearGradient id="paint2_linear_1_698" x1="314.243" y1="64.1596" x2="-621.368" y2="503.954" gradientUnits="userSpaceOnUse">
<stop stop-color="#F6CE67"/>
<stop offset="0.04" stop-color="#DCAF51"/>
<stop offset="0.07" stop-color="#C79640"/>
<stop offset="0.1" stop-color="#B98534"/>
<stop offset="0.14" stop-color="#B07B2D"/>
<stop offset="0.18" stop-color="#AE782B"/>
<stop offset="0.3" stop-color="#CD9E4A"/>
<stop offset="0.42" stop-color="#E8BE64"/>
<stop offset="0.49" stop-color="#F3CB6E"/>
<stop offset="0.54" stop-color="#EDC468"/>
<stop offset="0.62" stop-color="#DDB058"/>
<stop offset="0.72" stop-color="#C3913F"/>
<stop offset="0.78" stop-color="#AE782B"/>
<stop offset="0.82" stop-color="#B27D2E"/>
<stop offset="0.87" stop-color="#BE8C38"/>
<stop offset="0.92" stop-color="#D3A44A"/>
<stop offset="0.98" stop-color="#F0C661"/>
<stop offset="1" stop-color="#FFD86E"/>
</linearGradient>
<linearGradient id="paint3_linear_1_698" x1="316.242" y1="68.4152" x2="-619.362" y2="508.202" gradientUnits="userSpaceOnUse">
<stop stop-color="#F6CE67"/>
<stop offset="0.04" stop-color="#DCAF51"/>
<stop offset="0.07" stop-color="#C79640"/>
<stop offset="0.1" stop-color="#B98534"/>
<stop offset="0.14" stop-color="#B07B2D"/>
<stop offset="0.18" stop-color="#AE782B"/>
<stop offset="0.3" stop-color="#CD9E4A"/>
<stop offset="0.42" stop-color="#E8BE64"/>
<stop offset="0.49" stop-color="#F3CB6E"/>
<stop offset="0.54" stop-color="#EDC468"/>
<stop offset="0.62" stop-color="#DDB058"/>
<stop offset="0.72" stop-color="#C3913F"/>
<stop offset="0.78" stop-color="#AE782B"/>
<stop offset="0.82" stop-color="#B27D2E"/>
<stop offset="0.87" stop-color="#BE8C38"/>
<stop offset="0.92" stop-color="#D3A44A"/>
<stop offset="0.98" stop-color="#F0C661"/>
<stop offset="1" stop-color="#FFD86E"/>
</linearGradient>
<linearGradient id="paint4_linear_1_698" x1="305.913" y1="46.4417" x2="-629.696" y2="486.234" gradientUnits="userSpaceOnUse">
<stop stop-color="#F6CE67"/>
<stop offset="0.04" stop-color="#DCAF51"/>
<stop offset="0.07" stop-color="#C79640"/>
<stop offset="0.1" stop-color="#B98534"/>
<stop offset="0.14" stop-color="#B07B2D"/>
<stop offset="0.18" stop-color="#AE782B"/>
<stop offset="0.3" stop-color="#CD9E4A"/>
<stop offset="0.42" stop-color="#E8BE64"/>
<stop offset="0.49" stop-color="#F3CB6E"/>
<stop offset="0.54" stop-color="#EDC468"/>
<stop offset="0.62" stop-color="#DDB058"/>
<stop offset="0.72" stop-color="#C3913F"/>
<stop offset="0.78" stop-color="#AE782B"/>
<stop offset="0.82" stop-color="#B27D2E"/>
<stop offset="0.87" stop-color="#BE8C38"/>
<stop offset="0.92" stop-color="#D3A44A"/>
<stop offset="0.98" stop-color="#F0C661"/>
<stop offset="1" stop-color="#FFD86E"/>
</linearGradient>
<linearGradient id="paint5_linear_1_698" x1="282.909" y1="-2.49734" x2="-652.701" y2="437.295" gradientUnits="userSpaceOnUse">
<stop stop-color="#F6CE67"/>
<stop offset="0.04" stop-color="#DCAF51"/>
<stop offset="0.07" stop-color="#C79640"/>
<stop offset="0.1" stop-color="#B98534"/>
<stop offset="0.14" stop-color="#B07B2D"/>
<stop offset="0.18" stop-color="#AE782B"/>
<stop offset="0.3" stop-color="#CD9E4A"/>
<stop offset="0.42" stop-color="#E8BE64"/>
<stop offset="0.49" stop-color="#F3CB6E"/>
<stop offset="0.54" stop-color="#EDC468"/>
<stop offset="0.62" stop-color="#DDB058"/>
<stop offset="0.72" stop-color="#C3913F"/>
<stop offset="0.78" stop-color="#AE782B"/>
<stop offset="0.82" stop-color="#B27D2E"/>
<stop offset="0.87" stop-color="#BE8C38"/>
<stop offset="0.92" stop-color="#D3A44A"/>
<stop offset="0.98" stop-color="#F0C661"/>
<stop offset="1" stop-color="#FFD86E"/>
</linearGradient>
<linearGradient id="paint6_linear_1_698" x1="293.03" y1="19.0345" x2="-642.579" y2="458.827" gradientUnits="userSpaceOnUse">
<stop stop-color="#F6CE67"/>
<stop offset="0.04" stop-color="#DCAF51"/>
<stop offset="0.07" stop-color="#C79640"/>
<stop offset="0.1" stop-color="#B98534"/>
<stop offset="0.14" stop-color="#B07B2D"/>
<stop offset="0.18" stop-color="#AE782B"/>
<stop offset="0.3" stop-color="#CD9E4A"/>
<stop offset="0.42" stop-color="#E8BE64"/>
<stop offset="0.49" stop-color="#F3CB6E"/>
<stop offset="0.54" stop-color="#EDC468"/>
<stop offset="0.62" stop-color="#DDB058"/>
<stop offset="0.72" stop-color="#C3913F"/>
<stop offset="0.78" stop-color="#AE782B"/>
<stop offset="0.82" stop-color="#B27D2E"/>
<stop offset="0.87" stop-color="#BE8C38"/>
<stop offset="0.92" stop-color="#D3A44A"/>
<stop offset="0.98" stop-color="#F0C661"/>
<stop offset="1" stop-color="#FFD86E"/>
</linearGradient>
<linearGradient id="paint7_linear_1_698" x1="282.999" y1="-2.30362" x2="-652.61" y2="437.489" gradientUnits="userSpaceOnUse">
<stop stop-color="#F6CE67"/>
<stop offset="0.04" stop-color="#DCAF51"/>
<stop offset="0.07" stop-color="#C79640"/>
<stop offset="0.1" stop-color="#B98534"/>
<stop offset="0.14" stop-color="#B07B2D"/>
<stop offset="0.18" stop-color="#AE782B"/>
<stop offset="0.3" stop-color="#CD9E4A"/>
<stop offset="0.42" stop-color="#E8BE64"/>
<stop offset="0.49" stop-color="#F3CB6E"/>
<stop offset="0.54" stop-color="#EDC468"/>
<stop offset="0.62" stop-color="#DDB058"/>
<stop offset="0.72" stop-color="#C3913F"/>
<stop offset="0.78" stop-color="#AE782B"/>
<stop offset="0.82" stop-color="#B27D2E"/>
<stop offset="0.87" stop-color="#BE8C38"/>
<stop offset="0.92" stop-color="#D3A44A"/>
<stop offset="0.98" stop-color="#F0C661"/>
<stop offset="1" stop-color="#FFD86E"/>
</linearGradient>
<linearGradient id="paint8_linear_1_698" x1="275.375" y1="-18.5238" x2="-660.234" y2="421.269" gradientUnits="userSpaceOnUse">
<stop stop-color="#F6CE67"/>
<stop offset="0.04" stop-color="#DCAF51"/>
<stop offset="0.07" stop-color="#C79640"/>
<stop offset="0.1" stop-color="#B98534"/>
<stop offset="0.14" stop-color="#B07B2D"/>
<stop offset="0.18" stop-color="#AE782B"/>
<stop offset="0.3" stop-color="#CD9E4A"/>
<stop offset="0.42" stop-color="#E8BE64"/>
<stop offset="0.49" stop-color="#F3CB6E"/>
<stop offset="0.54" stop-color="#EDC468"/>
<stop offset="0.62" stop-color="#DDB058"/>
<stop offset="0.72" stop-color="#C3913F"/>
<stop offset="0.78" stop-color="#AE782B"/>
<stop offset="0.82" stop-color="#B27D2E"/>
<stop offset="0.87" stop-color="#BE8C38"/>
<stop offset="0.92" stop-color="#D3A44A"/>
<stop offset="0.98" stop-color="#F0C661"/>
<stop offset="1" stop-color="#FFD86E"/>
</linearGradient>
<linearGradient id="paint9_linear_1_698" x1="308.529" y1="52.087" x2="-627.077" y2="491.875" gradientUnits="userSpaceOnUse">
<stop stop-color="#F6CE67"/>
<stop offset="0.04" stop-color="#DCAF51"/>
<stop offset="0.07" stop-color="#C79640"/>
<stop offset="0.1" stop-color="#B98534"/>
<stop offset="0.14" stop-color="#B07B2D"/>
<stop offset="0.18" stop-color="#AE782B"/>
<stop offset="0.3" stop-color="#CD9E4A"/>
<stop offset="0.42" stop-color="#E8BE64"/>
<stop offset="0.49" stop-color="#F3CB6E"/>
<stop offset="0.54" stop-color="#EDC468"/>
<stop offset="0.62" stop-color="#DDB058"/>
<stop offset="0.72" stop-color="#C3913F"/>
<stop offset="0.78" stop-color="#AE782B"/>
<stop offset="0.82" stop-color="#B27D2E"/>
<stop offset="0.87" stop-color="#BE8C38"/>
<stop offset="0.92" stop-color="#D3A44A"/>
<stop offset="0.98" stop-color="#F0C661"/>
<stop offset="1" stop-color="#FFD86E"/>
</linearGradient>
<linearGradient id="paint10_linear_1_698" x1="240.729" y1="-92.2321" x2="-694.882" y2="347.562" gradientUnits="userSpaceOnUse">
<stop stop-color="#F6CE67"/>
<stop offset="0.04" stop-color="#DCAF51"/>
<stop offset="0.07" stop-color="#C79640"/>
<stop offset="0.1" stop-color="#B98534"/>
<stop offset="0.14" stop-color="#B07B2D"/>
<stop offset="0.18" stop-color="#AE782B"/>
<stop offset="0.3" stop-color="#CD9E4A"/>
<stop offset="0.42" stop-color="#E8BE64"/>
<stop offset="0.49" stop-color="#F3CB6E"/>
<stop offset="0.54" stop-color="#EDC468"/>
<stop offset="0.62" stop-color="#DDB058"/>
<stop offset="0.72" stop-color="#C3913F"/>
<stop offset="0.78" stop-color="#AE782B"/>
<stop offset="0.82" stop-color="#B27D2E"/>
<stop offset="0.87" stop-color="#BE8C38"/>
<stop offset="0.92" stop-color="#D3A44A"/>
<stop offset="0.98" stop-color="#F0C661"/>
<stop offset="1" stop-color="#FFD86E"/>
</linearGradient>
<linearGradient id="paint11_linear_1_698" x1="290.624" y1="13.9198" x2="-644.98" y2="453.706" gradientUnits="userSpaceOnUse">
<stop stop-color="#F6CE67"/>
<stop offset="0.04" stop-color="#DCAF51"/>
<stop offset="0.07" stop-color="#C79640"/>
<stop offset="0.1" stop-color="#B98534"/>
<stop offset="0.14" stop-color="#B07B2D"/>
<stop offset="0.18" stop-color="#AE782B"/>
<stop offset="0.3" stop-color="#CD9E4A"/>
<stop offset="0.42" stop-color="#E8BE64"/>
<stop offset="0.49" stop-color="#F3CB6E"/>
<stop offset="0.54" stop-color="#EDC468"/>
<stop offset="0.62" stop-color="#DDB058"/>
<stop offset="0.72" stop-color="#C3913F"/>
<stop offset="0.78" stop-color="#AE782B"/>
<stop offset="0.82" stop-color="#B27D2E"/>
<stop offset="0.87" stop-color="#BE8C38"/>
<stop offset="0.92" stop-color="#D3A44A"/>
<stop offset="0.98" stop-color="#F0C661"/>
<stop offset="1" stop-color="#FFD86E"/>
</linearGradient>
<linearGradient id="paint12_linear_1_698" x1="295.592" y1="24.483" x2="-640.018" y2="464.275" gradientUnits="userSpaceOnUse">
<stop stop-color="#F6CE67"/>
<stop offset="0.04" stop-color="#DCAF51"/>
<stop offset="0.07" stop-color="#C79640"/>
<stop offset="0.1" stop-color="#B98534"/>
<stop offset="0.14" stop-color="#B07B2D"/>
<stop offset="0.18" stop-color="#AE782B"/>
<stop offset="0.3" stop-color="#CD9E4A"/>
<stop offset="0.42" stop-color="#E8BE64"/>
<stop offset="0.49" stop-color="#F3CB6E"/>
<stop offset="0.54" stop-color="#EDC468"/>
<stop offset="0.62" stop-color="#DDB058"/>
<stop offset="0.72" stop-color="#C3913F"/>
<stop offset="0.78" stop-color="#AE782B"/>
<stop offset="0.82" stop-color="#B27D2E"/>
<stop offset="0.87" stop-color="#BE8C38"/>
<stop offset="0.92" stop-color="#D3A44A"/>
<stop offset="0.98" stop-color="#F0C661"/>
<stop offset="1" stop-color="#FFD86E"/>
</linearGradient>
<linearGradient id="paint13_linear_1_698" x1="272.009" y1="-25.6871" x2="-663.601" y2="414.107" gradientUnits="userSpaceOnUse">
<stop stop-color="#F6CE67"/>
<stop offset="0.04" stop-color="#DCAF51"/>
<stop offset="0.07" stop-color="#C79640"/>
<stop offset="0.1" stop-color="#B98534"/>
<stop offset="0.14" stop-color="#B07B2D"/>
<stop offset="0.18" stop-color="#AE782B"/>
<stop offset="0.3" stop-color="#CD9E4A"/>
<stop offset="0.42" stop-color="#E8BE64"/>
<stop offset="0.49" stop-color="#F3CB6E"/>
<stop offset="0.54" stop-color="#EDC468"/>
<stop offset="0.62" stop-color="#DDB058"/>
<stop offset="0.72" stop-color="#C3913F"/>
<stop offset="0.78" stop-color="#AE782B"/>
<stop offset="0.82" stop-color="#B27D2E"/>
<stop offset="0.87" stop-color="#BE8C38"/>
<stop offset="0.92" stop-color="#D3A44A"/>
<stop offset="0.98" stop-color="#F0C661"/>
<stop offset="1" stop-color="#FFD86E"/>
</linearGradient>
<linearGradient id="paint14_linear_1_698" x1="248.886" y1="-74.8878" x2="-686.729" y2="364.911" gradientUnits="userSpaceOnUse">
<stop stop-color="#F6CE67"/>
<stop offset="0.04" stop-color="#DCAF51"/>
<stop offset="0.07" stop-color="#C79640"/>
<stop offset="0.1" stop-color="#B98534"/>
<stop offset="0.14" stop-color="#B07B2D"/>
<stop offset="0.18" stop-color="#AE782B"/>
<stop offset="0.3" stop-color="#CD9E4A"/>
<stop offset="0.42" stop-color="#E8BE64"/>
<stop offset="0.49" stop-color="#F3CB6E"/>
<stop offset="0.54" stop-color="#EDC468"/>
<stop offset="0.62" stop-color="#DDB058"/>
<stop offset="0.72" stop-color="#C3913F"/>
<stop offset="0.78" stop-color="#AE782B"/>
<stop offset="0.82" stop-color="#B27D2E"/>
<stop offset="0.87" stop-color="#BE8C38"/>
<stop offset="0.92" stop-color="#D3A44A"/>
<stop offset="0.98" stop-color="#F0C661"/>
<stop offset="1" stop-color="#FFD86E"/>
</linearGradient>
<linearGradient id="paint15_linear_1_698" x1="264.413" y1="-41.8487" x2="-671.197" y2="397.945" gradientUnits="userSpaceOnUse">
<stop stop-color="#F6CE67"/>
<stop offset="0.04" stop-color="#DCAF51"/>
<stop offset="0.07" stop-color="#C79640"/>
<stop offset="0.1" stop-color="#B98534"/>
<stop offset="0.14" stop-color="#B07B2D"/>
<stop offset="0.18" stop-color="#AE782B"/>
<stop offset="0.3" stop-color="#CD9E4A"/>
<stop offset="0.42" stop-color="#E8BE64"/>
<stop offset="0.49" stop-color="#F3CB6E"/>
<stop offset="0.54" stop-color="#EDC468"/>
<stop offset="0.62" stop-color="#DDB058"/>
<stop offset="0.72" stop-color="#C3913F"/>
<stop offset="0.78" stop-color="#AE782B"/>
<stop offset="0.82" stop-color="#B27D2E"/>
<stop offset="0.87" stop-color="#BE8C38"/>
<stop offset="0.92" stop-color="#D3A44A"/>
<stop offset="0.98" stop-color="#F0C661"/>
<stop offset="1" stop-color="#FFD86E"/>
</linearGradient>
<linearGradient id="paint16_linear_1_698" x1="259.55" y1="-52.1953" x2="-676.062" y2="387.599" gradientUnits="userSpaceOnUse">
<stop stop-color="#F6CE67"/>
<stop offset="0.04" stop-color="#DCAF51"/>
<stop offset="0.07" stop-color="#C79640"/>
<stop offset="0.1" stop-color="#B98534"/>
<stop offset="0.14" stop-color="#B07B2D"/>
<stop offset="0.18" stop-color="#AE782B"/>
<stop offset="0.3" stop-color="#CD9E4A"/>
<stop offset="0.42" stop-color="#E8BE64"/>
<stop offset="0.49" stop-color="#F3CB6E"/>
<stop offset="0.54" stop-color="#EDC468"/>
<stop offset="0.62" stop-color="#DDB058"/>
<stop offset="0.72" stop-color="#C3913F"/>
<stop offset="0.78" stop-color="#AE782B"/>
<stop offset="0.82" stop-color="#B27D2E"/>
<stop offset="0.87" stop-color="#BE8C38"/>
<stop offset="0.92" stop-color="#D3A44A"/>
<stop offset="0.98" stop-color="#F0C661"/>
<stop offset="1" stop-color="#FFD86E"/>
</linearGradient>
<clipPath id="clip0_1_698">
<rect width="254.396" height="230.766" fill="white" transform="matrix(0.999646 0.0266135 0.0266135 -0.999646 -13.8896 230.699)"/>
</clipPath>
</defs>
</svg>
